HIERARCHY
ROOT Hips
{
	OFFSET 0.00000 0.00000 0.00000
	CHANNELS 6 Xposition Yposition Zposition Zrotation Yrotation Xrotation 
	JOINT LHipJoint
	{
		OFFSET 0 0 0
		CHANNELS 3 Zrotation Yrotation Xrotation
		JOINT LeftHip
		{
			OFFSET 1.29432 -1.88279 0.59910
			CHANNELS 3 Zrotation Yrotation Xrotation
			JOINT LeftKnee
			{
				OFFSET 2.63039 -7.22694 0.00000
				CHANNELS 3 Zrotation Yrotation Xrotation
				JOINT LeftAnkle
				{
					OFFSET 2.70674 -7.43672 0.00000
					CHANNELS 3 Zrotation Yrotation Xrotation
					JOINT LeftToe
					{
						OFFSET 0.15066 -0.41394 2.09027
						CHANNELS 3 Zrotation Yrotation Xrotation
						End Site
						{
							OFFSET 0.00000 -0.00000 1.07518
						}
					}
				}
			}
		}
	}
	JOINT RHipJoint
	{
		OFFSET 0 0 0
		CHANNELS 3 Zrotation Yrotation Xrotation
		JOINT RightHip
		{
			OFFSET -1.37068 -1.88279 0.59910
			CHANNELS 3 Zrotation Yrotation Xrotation
			JOINT RightKnee
			{
				OFFSET -2.57023 -7.06166 0.00000
				CHANNELS 3 Zrotation Yrotation Xrotation
				JOINT RightAnkle
				{
					OFFSET -2.76461 -7.59570 0.00000
					CHANNELS 3 Zrotation Yrotation Xrotation
					JOINT RightToe
					{
						OFFSET -0.24175 -0.64785 2.19719
						CHANNELS 3 Zrotation Yrotation Xrotation
						End Site
						{
							OFFSET -0.00000 -0.00000 1.14803
						}
					}
				}
			}
		}
	}
	JOINT lowerback
	{
		OFFSET 0 0 0
		CHANNELS 3 Zrotation Yrotation Xrotation
		JOINT Chest
		{
			OFFSET -0.03138 2.03983 -0.23106
			CHANNELS 3 Zrotation Yrotation Xrotation
			JOINT Chest2
			{
				OFFSET -0.00325 2.06238 -0.06878
				CHANNELS 3 Zrotation Yrotation Xrotation
				JOINT lowerneck
				{
					OFFSET 0 0 0
					CHANNELS 3 Zrotation Yrotation Xrotation
					JOINT Neck
					{
						OFFSET -0.00002 1.75318 0.18090
						CHANNELS 3 Zrotation Yrotation Xrotation
						JOINT Head
						{
							OFFSET 0.08806 1.75856 -0.25387
							CHANNELS 3 Zrotation Yrotation Xrotation
							End Site
							{
								OFFSET 0.02554 1.78597 -0.10684
							}
						}
					}
				}
				JOINT LeftCollar
				{
					OFFSET 0 0 0
					CHANNELS 3 Zrotation Yrotation Xrotation
					JOINT LeftShoulder
					{
						OFFSET 3.09657 1.33597 -0.04414
CHANNELS 3 Zrotation Xrotation Yrotation
						JOINT LeftElbow
						{
OFFSET 0 -5.342980 -0.000000
CHANNELS 3 Zrotation Xrotation Yrotation
							JOINT LeftWrist
							{
OFFSET 0 -3.672620 -0.000000
CHANNELS 3 Zrotation Xrotation Yrotation
								JOINT lhand
								{
									OFFSET 0 0 0
CHANNELS 3 Zrotation Xrotation Yrotation
									JOINT LFingers
									{
OFFSET 0 -0.599300 -0.000000
CHANNELS 3 Zrotation Xrotation Yrotation
										End Site
										{
OFFSET 0 -0.483170 -0.000000
										}
									}
								}
								JOINT LThumb
								{
OFFSET 0 0.000000 0.000000
CHANNELS 3 Zrotation Xrotation Yrotation
									End Site
									{
OFFSET 0 -0.490550 0.490550
									}
								}
							}
						}
					}
				}
				JOINT RightCollar
				{
					OFFSET 0 0 0
					CHANNELS 3 Zrotation Yrotation Xrotation
					JOINT RightShoulder
					{
						OFFSET -3.16460 1.32273 -0.23382
CHANNELS 3 Zrotation Xrotation Yrotation
						JOINT RightElbow
						{
OFFSET 0 -5.549670 0.033480
CHANNELS 3 Zrotation Xrotation Yrotation
							JOINT RightWrist
							{
OFFSET 0 -3.694010 0.000000
CHANNELS 3 Zrotation Xrotation Yrotation
								JOINT rhand
								{
									OFFSET 0 0 0
CHANNELS 3 Zrotation Xrotation Yrotation
									JOINT RFingers
									{
OFFSET 0 -0.638110 0.000000
CHANNELS 3 Zrotation Xrotation Yrotation
										End Site
										{
OFFSET 0 -0.514460 0.000000
										}
									}
								}
								JOINT RThumb
								{
OFFSET 0 0.000000 0.000000
CHANNELS 3 Zrotation Xrotation Yrotation
									End Site
									{
OFFSET 0 -0.522320 0.522320
									}
								}
							}
						}
					}
				}
			}
		}
	}
}
MOTION
Frames: 5
Frame Time: 0.008333333333333333
7.598490 10.085864 12.932663 186.765245 -9.924083 145.505267 0.000000 0.000000 0.000000 15.190145 8.176993 -58.506438 15.592794 19.527807 77.015897 1.073578 4.729520 18.578537 3.211235 11.029384 32.378948 0.000000 0.000000 0.000000 -9.738367 6.652675 -50.299530 -17.371920 -19.833579 82.295631 -0.257593 -6.044654 9.354698 -0.046306 1.379919 -3.795020 -0.862155 7.292049 35.487893 -2.334750 3.309535 16.285754 -3.000116 -0.693284 0.116761 -11.150236 -9.733961 -8.293201 18.620665 -12.715914 -7.457682 6.836803 -6.608496 1.181818 0.000000 0.000000 0.000000 43.860858 -27.379104 -41.051077 77.054229 -59.356735 48.812923 12.722976 13.136213 -17.362500 0.000000 0.000000 0.000000 -7.125000 0.000000 0.000000 -14.511748 47.215888 0.810195 0.000000 0.000000 0.000000 -21.453035 -20.940548 42.636518 -48.741849 -52.475084 -25.172942 -38.321738 -5.361689 -29.625035 0.000000 0.000000 0.000000 7.125000 0.000000 0.000000 -4.150707 -5.871995 -4.565299
7.599298 10.090039 12.922784 186.911487 -9.862727 145.766820 0.000000 0.000000 0.000000 15.364594 8.190664 -58.820560 15.624588 19.534705 77.111012 1.067928 4.691075 18.531590 3.209807 11.027242 32.371776 0.000000 0.000000 0.000000 -9.486954 6.624878 -50.340784 -17.335150 -19.828907 82.187140 -0.229049 -5.849521 8.854990 -0.127859 2.275473 -6.268751 -0.718531 7.281494 35.128914 -2.285141 3.361993 16.414490 -3.033614 -0.658286 0.386826 -11.334502 -9.880750 -8.686563 18.922901 -12.903534 -7.328993 6.915671 -6.685927 1.348393 0.000000 0.000000 0.000000 44.212288 -27.492905 -40.986093 77.152258 -59.367027 48.897186 12.932811 13.570350 -17.553328 0.000000 0.000000 0.000000 -7.125000 0.000000 0.000000 -14.383478 47.431877 0.880312 0.000000 0.000000 0.000000 -21.564122 -21.315270 42.616203 -48.108983 -52.203230 -24.671983 -38.050003 -5.468201 -29.832390 0.000000 0.000000 0.000000 7.125000 0.000000 0.000000 -3.949737 -6.006616 -4.351127
7.597573 10.091022 12.917864 187.067422 -9.820741 145.879452 0.000000 0.000000 0.000000 15.545455 8.111384 -58.999999 15.668422 19.544054 77.242169 1.067908 4.635214 18.536397 3.309437 11.179362 32.887947 0.000000 0.000000 0.000000 -9.332145 6.704778 -50.257699 -17.288180 -19.822763 82.048616 -0.219311 -5.533885 8.622062 -0.193719 2.824869 -7.792189 -0.496959 7.187401 35.333113 -2.281673 3.332211 16.294462 -3.137977 -0.646937 0.199235 -11.517025 -10.040160 -9.057985 19.018346 -13.108971 -6.877132 6.919804 -6.745475 1.589983 0.000000 0.000000 0.000000 44.661786 -27.144677 -41.130719 77.547150 -59.405648 49.237069 13.186925 13.594806 -17.144917 0.000000 0.000000 0.000000 -7.125000 0.000000 0.000000 -14.011833 47.063129 0.728337 0.000000 0.000000 0.000000 -21.668646 -21.303947 42.887483 -47.688400 -52.019316 -24.339973 -38.691985 -5.903823 -29.589100 0.000000 0.000000 0.000000 7.125000 0.000000 0.000000 -4.365729 -5.963099 -4.808991
7.592946 10.090207 12.909685 187.188614 -9.796190 145.880042 0.000000 0.000000 0.000000 15.657616 8.164473 -59.119743 15.724783 19.556020 77.410639 1.071908 4.383500 18.598775 3.388695 11.298969 33.295292 0.000000 0.000000 0.000000 -9.242467 6.796570 -50.071478 -17.241412 -19.816563 81.910694 -0.207488 -5.508645 8.413630 -0.207072 2.929841 -8.083511 -0.402747 7.132898 35.841692 -2.200805 3.308651 16.064923 -3.100919 -0.645100 -0.220134 -11.613660 -10.172875 -9.395175 18.851130 -13.271063 -6.422967 6.836539 -6.781023 1.790570 0.000000 0.000000 0.000000 44.368394 -27.007272 -41.220033 77.526245 -59.403758 49.219082 13.300400 13.802689 -16.786794 0.000000 0.000000 0.000000 -7.125000 0.000000 0.000000 -13.788817 46.724528 0.598178 0.000000 0.000000 0.000000 -21.912386 -21.161113 43.175475 -47.467723 -51.921666 -24.166074 -38.673796 -5.809194 -29.335487 0.000000 0.000000 0.000000 7.125000 0.000000 0.000000 -4.416620 -5.673344 -4.845620
7.589471 10.088685 12.896031 187.280683 -9.769728 145.981324 0.000000 0.000000 0.000000 15.738239 8.300744 -59.326927 15.781948 19.567985 77.581310 1.066795 4.184503 18.574546 3.545486 11.527538 34.083159 0.000000 0.000000 0.000000 -9.204831 6.837930 -50.075159 -17.226372 -19.814581 81.866411 -0.186842 -5.885480 8.159911 -0.168226 2.628982 -7.248151 -0.156626 7.050043 35.778273 -2.265279 3.267421 16.130307 -3.283986 -0.650923 -0.111198 -11.531233 -10.240031 -9.661633 18.835285 -13.367164 -6.318314 6.792148 -6.818124 1.870420 0.000000 0.000000 0.000000 44.392124 -27.128918 -41.075291 77.640286 -59.414653 49.317219 13.292611 13.846761 -16.748451 0.000000 0.000000 0.000000 -7.125000 0.000000 0.000000 -13.783274 46.685597 0.584240 0.000000 0.000000 0.000000 -21.910541 -21.378914 43.139445 -47.306718 -51.849707 -24.039399 -38.347152 -6.042873 -29.961163 0.000000 0.000000 0.000000 7.125000 0.000000 0.000000 -4.082964 -6.251814 -4.511290
